<?xml version="1.0" ?><svg xmlns:inkscape="http://www.inkscape.org/namespaces/inkscape" xmlns:sodipodi="http://sodipodi.sourceforge.net/DTD/sodipodi-0.dtd" xmlns="http://www.w3.org/2000/svg" xmlns:svg="http://www.w3.org/2000/svg" version="1.2" width="56.48mm" height="25.00mm" viewBox="0.0000 -0.0000 53.5637 23.7106" id="svg109" sodipodi:docname="container.svg" inkscape:version="1.4.2 (ebf0e940, 2025-05-08)" xmlns:xlink="http://www.w3.org/1999/xlink">
  <defs id="defs109"><symbol id="inserted_svg_topaste_svg" viewBox="0 0 56.480000 25.000000" width="56.48mm" height="25.00mm"><g id="gesture_paths"><path fill="none" stroke-width="0.262342mm" stroke-linecap="butt" stroke-linejoin="miter" stroke="rgb(0%, 0%, 0%)" stroke-opacity="0.807737" stroke-miterlimit="10" d="M 0.000000 0.000000 C 0.152962 0.031695 0.358289 0.073036 0.511251 0.104731 "/>
<path fill="none" stroke-width="0.260688mm" stroke-linecap="butt" stroke-linejoin="miter" stroke="rgb(0%, 0%, 0%)" stroke-opacity="0.804219" stroke-miterlimit="10" d="M 0.511251 0.104731 C 0.664213 0.133669 0.869541 0.170876 1.022503 0.199815 "/>
<path fill="none" stroke-width="0.259033mm" stroke-linecap="butt" stroke-linejoin="miter" stroke="rgb(0%, 0%, 0%)" stroke-opacity="0.800702" stroke-miterlimit="10" d="M 1.022503 0.199815 C 1.176843 0.225998 1.380792 0.260449 1.533754 0.285254 "/>
<path fill="none" stroke-width="0.257379mm" stroke-linecap="butt" stroke-linejoin="miter" stroke="rgb(0%, 0%, 0%)" stroke-opacity="0.797184" stroke-miterlimit="10" d="M 1.533754 0.285254 C 1.686716 0.308680 1.892043 0.338997 2.045006 0.362424 "/>
<path fill="none" stroke-width="0.255724mm" stroke-linecap="butt" stroke-linejoin="miter" stroke="rgb(0%, 0%, 0%)" stroke-opacity="0.793666" stroke-miterlimit="10" d="M 2.045006 0.362424 C 2.197968 0.381716 2.403295 0.409277 2.556257 0.429947 "/>
<path fill="none" stroke-width="0.254069mm" stroke-linecap="butt" stroke-linejoin="miter" stroke="rgb(0%, 0%, 0%)" stroke-opacity="0.790149" stroke-miterlimit="10" d="M 2.556257 0.429947 C 2.709219 0.447862 2.913168 0.471289 3.067508 0.489203 "/>
<path fill="none" stroke-width="0.252415mm" stroke-linecap="butt" stroke-linejoin="miter" stroke="rgb(0%, 0%, 0%)" stroke-opacity="0.786631" stroke-miterlimit="10" d="M 3.067508 0.489203 C 3.220470 0.504361 3.424420 0.525032 3.577382 0.540190 "/>
<path fill="none" stroke-width="0.250760mm" stroke-linecap="butt" stroke-linejoin="miter" stroke="rgb(0%, 0%, 0%)" stroke-opacity="0.783113" stroke-miterlimit="10" d="M 3.577382 0.540190 C 3.730344 0.553970 3.934293 0.570507 4.088633 0.584287 "/>
<path fill="none" stroke-width="0.249106mm" stroke-linecap="butt" stroke-linejoin="miter" stroke="rgb(0%, 0%, 0%)" stroke-opacity="0.779596" stroke-miterlimit="10" d="M 4.088633 0.584287 C 4.241595 0.595312 4.445544 0.609092 4.598506 0.620116 "/>
<path fill="none" stroke-width="0.247451mm" stroke-linecap="butt" stroke-linejoin="miter" stroke="rgb(0%, 0%, 0%)" stroke-opacity="0.776078" stroke-miterlimit="10" d="M 4.598506 0.620116 C 4.751468 0.629762 4.955418 0.640787 5.108380 0.649055 "/>
<path fill="none" stroke-width="0.245796mm" stroke-linecap="butt" stroke-linejoin="miter" stroke="rgb(0%, 0%, 0%)" stroke-opacity="0.77256" stroke-miterlimit="10" d="M 5.108380 0.649055 C 5.262720 0.655945 5.466669 0.665592 5.619631 0.672482 "/>
<path fill="none" stroke-width="0.244142mm" stroke-linecap="butt" stroke-linejoin="miter" stroke="rgb(0%, 0%, 0%)" stroke-opacity="0.769043" stroke-miterlimit="10" d="M 5.619631 0.672482 C 5.772593 0.676616 5.976542 0.683506 6.129505 0.687640 "/>
<path fill="none" stroke-width="0.242487mm" stroke-linecap="butt" stroke-linejoin="miter" stroke="rgb(0%, 0%, 0%)" stroke-opacity="0.765525" stroke-miterlimit="10" d="M 6.129505 0.687640 C 6.282467 0.690396 6.486416 0.694530 6.639378 0.698664 "/>
<path fill="none" stroke-width="0.240833mm" stroke-linecap="butt" stroke-linejoin="miter" stroke="rgb(0%, 0%, 0%)" stroke-opacity="0.762007" stroke-miterlimit="10" d="M 6.639378 0.698664 C 6.792340 0.698664 6.996289 0.701420 7.149251 0.702799 "/>
<path fill="none" stroke-width="0.239178mm" stroke-linecap="butt" stroke-linejoin="miter" stroke="rgb(0%, 0%, 0%)" stroke-opacity="0.75849" stroke-miterlimit="10" d="M 7.149251 0.702799 C 7.302213 0.701420 7.506163 0.701420 7.659125 0.701420 "/>
<path fill="none" stroke-width="0.242188mm" stroke-linecap="butt" stroke-linejoin="miter" stroke="rgb(0%, 0%, 0%)" stroke-opacity="0.764889" stroke-miterlimit="10" d="M 7.659125 0.701420 C 7.812087 0.700042 8.016036 0.697286 8.168998 0.695908 "/>
<path fill="none" stroke-width="0.245976mm" stroke-linecap="butt" stroke-linejoin="miter" stroke="rgb(0%, 0%, 0%)" stroke-opacity="0.772942" stroke-miterlimit="10" d="M 8.168998 0.695908 C 8.321960 0.691774 8.525909 0.687640 8.678871 0.684884 "/>
<path fill="none" stroke-width="0.249764mm" stroke-linecap="butt" stroke-linejoin="miter" stroke="rgb(0%, 0%, 0%)" stroke-opacity="0.780994" stroke-miterlimit="10" d="M 8.678871 0.684884 C 8.831833 0.679372 9.035783 0.673860 9.188745 0.669726 "/>
<path fill="none" stroke-width="0.253551mm" stroke-linecap="butt" stroke-linejoin="miter" stroke="rgb(0%, 0%, 0%)" stroke-opacity="0.789047" stroke-miterlimit="10" d="M 9.188745 0.669726 C 9.341707 0.664213 9.545656 0.655945 9.698618 0.650433 "/>
<path fill="none" stroke-width="0.257339mm" stroke-linecap="butt" stroke-linejoin="miter" stroke="rgb(0%, 0%, 0%)" stroke-opacity="0.797099" stroke-miterlimit="10" d="M 9.698618 0.650433 C 9.851580 0.643543 10.055529 0.633897 10.208491 0.627007 "/>
<path fill="none" stroke-width="0.261127mm" stroke-linecap="butt" stroke-linejoin="miter" stroke="rgb(0%, 0%, 0%)" stroke-opacity="0.805152" stroke-miterlimit="10" d="M 10.208491 0.627007 C 10.361453 0.620116 10.565403 0.609092 10.718365 0.600824 "/>
<path fill="none" stroke-width="0.264914mm" stroke-linecap="butt" stroke-linejoin="miter" stroke="rgb(0%, 0%, 0%)" stroke-opacity="0.813204" stroke-miterlimit="10" d="M 10.718365 0.600824 C 10.871327 0.592556 11.073898 0.581531 11.226860 0.571885 "/>
<path fill="none" stroke-width="0.268702mm" stroke-linecap="butt" stroke-linejoin="miter" stroke="rgb(0%, 0%, 0%)" stroke-opacity="0.821257" stroke-miterlimit="10" d="M 11.226860 0.571885 C 11.379822 0.562239 11.583772 0.549836 11.736733 0.540190 "/>
<path fill="none" stroke-width="0.272490mm" stroke-linecap="butt" stroke-linejoin="miter" stroke="rgb(0%, 0%, 0%)" stroke-opacity="0.829309" stroke-miterlimit="10" d="M 11.736733 0.540190 C 11.889695 0.530544 12.093645 0.516764 12.246607 0.507117 "/>
<path fill="none" stroke-width="0.276277mm" stroke-linecap="butt" stroke-linejoin="miter" stroke="rgb(0%, 0%, 0%)" stroke-opacity="0.837362" stroke-miterlimit="10" d="M 12.246607 0.507117 C 12.399569 0.496093 12.603518 0.480935 12.756480 0.469910 "/>
<path fill="none" stroke-width="0.280065mm" stroke-linecap="butt" stroke-linejoin="miter" stroke="rgb(0%, 0%, 0%)" stroke-opacity="0.845414" stroke-miterlimit="10" d="M 12.756480 0.469910 C 12.908064 0.458886 13.112013 0.443727 13.264975 0.432703 "/>
<path fill="none" stroke-width="0.283853mm" stroke-linecap="butt" stroke-linejoin="miter" stroke="rgb(0%, 0%, 0%)" stroke-opacity="0.853467" stroke-miterlimit="10" d="M 13.264975 0.432703 C 13.417937 0.421679 13.621887 0.405143 13.774849 0.394118 "/>
<path fill="none" stroke-width="0.287640mm" stroke-linecap="butt" stroke-linejoin="miter" stroke="rgb(0%, 0%, 0%)" stroke-opacity="0.861519" stroke-miterlimit="10" d="M 13.774849 0.394118 C 13.927811 0.381716 14.131760 0.365179 14.283344 0.354155 "/>
<path fill="none" stroke-width="0.291428mm" stroke-linecap="butt" stroke-linejoin="miter" stroke="rgb(0%, 0%, 0%)" stroke-opacity="0.869572" stroke-miterlimit="10" d="M 14.283344 0.354155 C 14.436306 0.341753 14.640255 0.325217 14.793218 0.312814 "/>
<path fill="none" stroke-width="0.290818mm" stroke-linecap="butt" stroke-linejoin="miter" stroke="rgb(0%, 0%, 0%)" stroke-opacity="0.868275" stroke-miterlimit="10" d="M 14.793218 0.312814 C 14.946180 0.300412 15.150129 0.285254 15.303091 0.272851 "/>
<path fill="none" stroke-width="0.288448mm" stroke-linecap="butt" stroke-linejoin="miter" stroke="rgb(0%, 0%, 0%)" stroke-opacity="0.863238" stroke-miterlimit="10" d="M 15.303091 0.272851 C 15.456053 0.260449 15.658624 0.243912 15.811586 0.231510 "/>
<path fill="none" stroke-width="0.286079mm" stroke-linecap="butt" stroke-linejoin="miter" stroke="rgb(0%, 0%, 0%)" stroke-opacity="0.858201" stroke-miterlimit="10" d="M 15.811586 0.231510 C 15.964548 0.219108 16.168497 0.203949 16.321459 0.191547 "/>
<path fill="none" stroke-width="0.283710mm" stroke-linecap="butt" stroke-linejoin="miter" stroke="rgb(0%, 0%, 0%)" stroke-opacity="0.853164" stroke-miterlimit="10" d="M 16.321459 0.191547 C 16.474422 0.179145 16.678371 0.163986 16.831333 0.151584 "/>
<path fill="none" stroke-width="0.281341mm" stroke-linecap="butt" stroke-linejoin="miter" stroke="rgb(0%, 0%, 0%)" stroke-opacity="0.848127" stroke-miterlimit="10" d="M 16.831333 0.151584 C 16.984295 0.140560 17.186866 0.124023 17.339828 0.112999 "/>
<path fill="none" stroke-width="0.278971mm" stroke-linecap="butt" stroke-linejoin="miter" stroke="rgb(0%, 0%, 0%)" stroke-opacity="0.843089" stroke-miterlimit="10" d="M 17.339828 0.112999 C 17.492790 0.101974 17.696739 0.086816 17.849701 0.075792 "/>
<path fill="none" stroke-width="0.276602mm" stroke-linecap="butt" stroke-linejoin="miter" stroke="rgb(0%, 0%, 0%)" stroke-opacity="0.838052" stroke-miterlimit="10" d="M 17.849701 0.075792 C 18.002663 0.064768 18.206613 0.050987 18.359575 0.039963 "/>
<path fill="none" stroke-width="0.274233mm" stroke-linecap="butt" stroke-linejoin="miter" stroke="rgb(0%, 0%, 0%)" stroke-opacity="0.833015" stroke-miterlimit="10" d="M 18.359575 0.039963 C 18.512537 0.030317 18.715108 0.016536 18.868070 0.006890 "/>
<path fill="none" stroke-width="0.271864mm" stroke-linecap="butt" stroke-linejoin="miter" stroke="rgb(0%, 0%, 0%)" stroke-opacity="0.827978" stroke-miterlimit="10" d="M 18.868070 0.006890 C 19.021032 -0.002756 19.224982 -0.015158 19.377944 -0.024805 "/>
<path fill="none" stroke-width="0.269494mm" stroke-linecap="butt" stroke-linejoin="miter" stroke="rgb(0%, 0%, 0%)" stroke-opacity="0.822941" stroke-miterlimit="10" d="M 19.377944 -0.024805 C 19.530905 -0.033073 19.734855 -0.044097 19.887817 -0.052366 "/>
<path fill="none" stroke-width="0.267125mm" stroke-linecap="butt" stroke-linejoin="miter" stroke="rgb(0%, 0%, 0%)" stroke-opacity="0.817904" stroke-miterlimit="10" d="M 19.887817 -0.052366 C 20.040779 -0.060634 20.244728 -0.070280 20.397690 -0.077170 "/>
<path fill="none" stroke-width="0.264755mm" stroke-linecap="butt" stroke-linejoin="miter" stroke="rgb(0%, 0%, 0%)" stroke-opacity="0.812867" stroke-miterlimit="10" d="M 20.397690 -0.077170 C 20.550652 -0.084060 20.754601 -0.092329 20.907564 -0.099219 "/>
<path fill="none" stroke-width="0.262386mm" stroke-linecap="butt" stroke-linejoin="miter" stroke="rgb(0%, 0%, 0%)" stroke-opacity="0.80783" stroke-miterlimit="10" d="M 20.907564 -0.099219 C 21.059147 -0.104731 21.263097 -0.111621 21.416059 -0.117133 "/>
<path fill="none" stroke-width="0.260017mm" stroke-linecap="butt" stroke-linejoin="miter" stroke="rgb(0%, 0%, 0%)" stroke-opacity="0.802793" stroke-miterlimit="10" d="M 21.416059 -0.117133 C 21.569021 -0.121267 21.772970 -0.126779 21.925932 -0.130914 "/>
<path fill="none" stroke-width="0.259383mm" stroke-linecap="butt" stroke-linejoin="miter" stroke="rgb(0%, 0%, 0%)" stroke-opacity="0.801445" stroke-miterlimit="10" d="M 21.925932 -0.130914 C 22.078894 -0.133669 22.282843 -0.137804 22.435805 -0.140560 "/>
<path fill="none" stroke-width="0.260050mm" stroke-linecap="butt" stroke-linejoin="miter" stroke="rgb(0%, 0%, 0%)" stroke-opacity="0.802863" stroke-miterlimit="10" d="M 22.435805 -0.140560 C 22.588768 -0.141938 22.792717 -0.143316 22.945679 -0.144694 "/>
<path fill="none" stroke-width="0.260717mm" stroke-linecap="butt" stroke-linejoin="miter" stroke="rgb(0%, 0%, 0%)" stroke-opacity="0.804281" stroke-miterlimit="10" d="M 22.945679 -0.144694 C 23.098641 -0.144694 23.302590 -0.144694 23.455552 -0.144694 "/>
<path fill="none" stroke-width="0.261384mm" stroke-linecap="butt" stroke-linejoin="miter" stroke="rgb(0%, 0%, 0%)" stroke-opacity="0.805699" stroke-miterlimit="10" d="M 23.455552 -0.144694 C 23.608514 -0.141938 23.812464 -0.140560 23.965426 -0.137804 "/>
<path fill="none" stroke-width="0.262051mm" stroke-linecap="butt" stroke-linejoin="miter" stroke="rgb(0%, 0%, 0%)" stroke-opacity="0.807117" stroke-miterlimit="10" d="M 23.965426 -0.137804 C 24.119766 -0.135047 24.323715 -0.129536 24.476677 -0.126779 "/>
<path fill="none" stroke-width="0.262718mm" stroke-linecap="butt" stroke-linejoin="miter" stroke="rgb(0%, 0%, 0%)" stroke-opacity="0.808535" stroke-miterlimit="10" d="M 24.476677 -0.126779 C 24.629639 -0.121267 24.833588 -0.114377 24.986550 -0.110243 "/>
<path fill="none" stroke-width="0.263385mm" stroke-linecap="butt" stroke-linejoin="miter" stroke="rgb(0%, 0%, 0%)" stroke-opacity="0.809953" stroke-miterlimit="10" d="M 24.986550 -0.110243 C 25.139512 -0.104731 25.343462 -0.096463 25.496424 -0.090950 "/>
<path fill="none" stroke-width="0.264052mm" stroke-linecap="butt" stroke-linejoin="miter" stroke="rgb(0%, 0%, 0%)" stroke-opacity="0.811371" stroke-miterlimit="10" d="M 25.496424 -0.090950 C 25.649386 -0.086816 25.853335 -0.079926 26.006297 -0.074414 "/>
<path fill="none" stroke-width="0.264719mm" stroke-linecap="butt" stroke-linejoin="miter" stroke="rgb(0%, 0%, 0%)" stroke-opacity="0.81279" stroke-miterlimit="10" d="M 26.006297 -0.074414 C 26.159259 -0.070280 26.363209 -0.064768 26.516170 -0.060634 "/>
<path fill="none" stroke-width="0.265386mm" stroke-linecap="butt" stroke-linejoin="miter" stroke="rgb(0%, 0%, 0%)" stroke-opacity="0.814208" stroke-miterlimit="10" d="M 26.516170 -0.060634 C 26.669132 -0.059256 26.873082 -0.056499 27.026044 -0.055121 "/>
<path fill="none" stroke-width="0.266053mm" stroke-linecap="butt" stroke-linejoin="miter" stroke="rgb(0%, 0%, 0%)" stroke-opacity="0.815626" stroke-miterlimit="10" d="M 27.026044 -0.055121 C 27.179006 -0.056499 27.382955 -0.057877 27.535917 -0.059256 "/>
<path fill="none" stroke-width="0.266720mm" stroke-linecap="butt" stroke-linejoin="miter" stroke="rgb(0%, 0%, 0%)" stroke-opacity="0.817044" stroke-miterlimit="10" d="M 27.535917 -0.059256 C 27.688879 -0.064768 27.892828 -0.071658 28.045790 -0.077170 "/>
<path fill="none" stroke-width="0.267387mm" stroke-linecap="butt" stroke-linejoin="miter" stroke="rgb(0%, 0%, 0%)" stroke-opacity="0.818462" stroke-miterlimit="10" d="M 28.045790 -0.077170 C 28.197375 -0.085438 28.401324 -0.096463 28.554286 -0.106109 "/>
<path fill="none" stroke-width="0.268054mm" stroke-linecap="butt" stroke-linejoin="miter" stroke="rgb(0%, 0%, 0%)" stroke-opacity="0.81988" stroke-miterlimit="10" d="M 28.554286 -0.106109 C 28.707248 -0.117133 28.909819 -0.130914 29.062781 -0.141938 "/>
<path fill="none" stroke-width="0.267614mm" stroke-linecap="butt" stroke-linejoin="miter" stroke="rgb(0%, 0%, 0%)" stroke-opacity="0.818944" stroke-miterlimit="10" d="M 29.062781 -0.141938 C 29.215743 -0.154340 29.419692 -0.170876 29.571277 -0.181901 "/>
<path fill="none" stroke-width="0.265697mm" stroke-linecap="butt" stroke-linejoin="miter" stroke="rgb(0%, 0%, 0%)" stroke-opacity="0.81487" stroke-miterlimit="10" d="M 29.571277 -0.181901 C 29.724238 -0.194303 29.928188 -0.209461 30.081150 -0.220486 "/>
<path fill="none" stroke-width="0.263781mm" stroke-linecap="butt" stroke-linejoin="miter" stroke="rgb(0%, 0%, 0%)" stroke-opacity="0.810795" stroke-miterlimit="10" d="M 30.081150 -0.220486 C 30.232734 -0.230132 30.436683 -0.243912 30.589645 -0.253559 "/>
<path fill="none" stroke-width="0.261864mm" stroke-linecap="butt" stroke-linejoin="miter" stroke="rgb(0%, 0%, 0%)" stroke-opacity="0.80672" stroke-miterlimit="10" d="M 30.589645 -0.253559 C 30.742607 -0.260449 30.946556 -0.268717 31.099518 -0.275607 "/>
<path fill="none" stroke-width="0.259948mm" stroke-linecap="butt" stroke-linejoin="miter" stroke="rgb(0%, 0%, 0%)" stroke-opacity="0.802646" stroke-miterlimit="10" d="M 31.099518 -0.275607 C 31.252481 -0.278363 31.456430 -0.283876 31.609392 -0.286632 "/>
<path fill="none" stroke-width="0.258031mm" stroke-linecap="butt" stroke-linejoin="miter" stroke="rgb(0%, 0%, 0%)" stroke-opacity="0.798571" stroke-miterlimit="10" d="M 31.609392 -0.286632 C 31.762354 -0.288009 31.966303 -0.289387 32.119265 -0.289387 "/>
<path fill="none" stroke-width="0.256115mm" stroke-linecap="butt" stroke-linejoin="miter" stroke="rgb(0%, 0%, 0%)" stroke-opacity="0.794496" stroke-miterlimit="10" d="M 32.119265 -0.289387 C 32.272227 -0.288009 32.476177 -0.286632 32.629139 -0.285254 "/>
<path fill="none" stroke-width="0.254198mm" stroke-linecap="butt" stroke-linejoin="miter" stroke="rgb(0%, 0%, 0%)" stroke-opacity="0.790421" stroke-miterlimit="10" d="M 32.629139 -0.285254 C 32.782100 -0.283876 32.986050 -0.279741 33.139012 -0.276985 "/>
<path fill="none" stroke-width="0.252281mm" stroke-linecap="butt" stroke-linejoin="miter" stroke="rgb(0%, 0%, 0%)" stroke-opacity="0.786347" stroke-miterlimit="10" d="M 33.139012 -0.276985 C 33.291974 -0.274229 33.495923 -0.270095 33.650263 -0.267339 "/>
<path fill="none" stroke-width="0.250365mm" stroke-linecap="butt" stroke-linejoin="miter" stroke="rgb(0%, 0%, 0%)" stroke-opacity="0.782272" stroke-miterlimit="10" d="M 33.650263 -0.267339 C 33.803225 -0.264583 34.007175 -0.259071 34.160137 -0.256315 "/>
<path fill="none" stroke-width="0.248448mm" stroke-linecap="butt" stroke-linejoin="miter" stroke="rgb(0%, 0%, 0%)" stroke-opacity="0.778197" stroke-miterlimit="10" d="M 34.160137 -0.256315 C 34.313099 -0.253559 34.517048 -0.249424 34.670010 -0.246669 "/>
<path fill="none" stroke-width="0.246531mm" stroke-linecap="butt" stroke-linejoin="miter" stroke="rgb(0%, 0%, 0%)" stroke-opacity="0.774123" stroke-miterlimit="10" d="M 34.670010 -0.246669 C 34.822972 -0.243912 35.026921 -0.239778 35.179883 -0.237022 "/>
<path fill="none" stroke-width="0.244615mm" stroke-linecap="butt" stroke-linejoin="miter" stroke="rgb(0%, 0%, 0%)" stroke-opacity="0.770048" stroke-miterlimit="10" d="M 35.179883 -0.237022 C 35.332845 -0.234266 35.536795 -0.231510 35.689757 -0.228754 "/>
<path fill="none" stroke-width="0.242698mm" stroke-linecap="butt" stroke-linejoin="miter" stroke="rgb(0%, 0%, 0%)" stroke-opacity="0.765973" stroke-miterlimit="10" d="M 35.689757 -0.228754 C 35.842719 -0.225998 36.046668 -0.223242 36.199630 -0.220486 "/>
<path fill="none" stroke-width="0.241949mm" stroke-linecap="butt" stroke-linejoin="miter" stroke="rgb(0%, 0%, 0%)" stroke-opacity="0.76438" stroke-miterlimit="10" d="M 36.199630 -0.220486 C 36.352592 -0.217730 36.556541 -0.214974 36.709503 -0.213596 "/>
<path fill="none" stroke-width="0.244118mm" stroke-linecap="butt" stroke-linejoin="miter" stroke="rgb(0%, 0%, 0%)" stroke-opacity="0.768992" stroke-miterlimit="10" d="M 36.709503 -0.213596 C 36.862466 -0.210839 37.066415 -0.208084 37.219377 -0.206706 "/>
<path fill="none" stroke-width="0.246287mm" stroke-linecap="butt" stroke-linejoin="miter" stroke="rgb(0%, 0%, 0%)" stroke-opacity="0.773603" stroke-miterlimit="10" d="M 37.219377 -0.206706 C 37.372339 -0.205327 37.576288 -0.202571 37.729250 -0.199815 "/>
<path fill="none" stroke-width="0.248456mm" stroke-linecap="butt" stroke-linejoin="miter" stroke="rgb(0%, 0%, 0%)" stroke-opacity="0.778215" stroke-miterlimit="10" d="M 37.729250 -0.199815 C 37.882212 -0.198437 38.086162 -0.197059 38.239123 -0.195681 "/>
<path fill="none" stroke-width="0.250625mm" stroke-linecap="butt" stroke-linejoin="miter" stroke="rgb(0%, 0%, 0%)" stroke-opacity="0.782826" stroke-miterlimit="10" d="M 38.239123 -0.195681 C 38.392085 -0.194303 38.596035 -0.191547 38.748997 -0.190169 "/>
<path fill="none" stroke-width="0.252794mm" stroke-linecap="butt" stroke-linejoin="miter" stroke="rgb(0%, 0%, 0%)" stroke-opacity="0.787437" stroke-miterlimit="10" d="M 38.748997 -0.190169 C 38.901959 -0.188791 39.105908 -0.187413 39.258870 -0.186035 "/>
<path fill="none" stroke-width="0.254963mm" stroke-linecap="butt" stroke-linejoin="miter" stroke="rgb(0%, 0%, 0%)" stroke-opacity="0.792049" stroke-miterlimit="10" d="M 39.258870 -0.186035 C 39.411832 -0.184657 39.615781 -0.183279 39.768744 -0.183279 "/>
<path fill="none" stroke-width="0.257132mm" stroke-linecap="butt" stroke-linejoin="miter" stroke="rgb(0%, 0%, 0%)" stroke-opacity="0.79666" stroke-miterlimit="10" d="M 39.768744 -0.183279 C 39.921705 -0.181901 40.125655 -0.180523 40.278617 -0.180523 "/>
<path fill="none" stroke-width="0.259302mm" stroke-linecap="butt" stroke-linejoin="miter" stroke="rgb(0%, 0%, 0%)" stroke-opacity="0.801272" stroke-miterlimit="10" d="M 40.278617 -0.180523 C 40.431579 -0.179145 40.635528 -0.179145 40.788490 -0.177767 "/>
<path fill="none" stroke-width="0.261470mm" stroke-linecap="butt" stroke-linejoin="miter" stroke="rgb(0%, 0%, 0%)" stroke-opacity="0.805883" stroke-miterlimit="10" d="M 40.788490 -0.177767 C 40.940074 -0.177767 41.144023 -0.177767 41.296986 -0.176389 "/>
<path fill="none" stroke-width="0.263640mm" stroke-linecap="butt" stroke-linejoin="miter" stroke="rgb(0%, 0%, 0%)" stroke-opacity="0.810494" stroke-miterlimit="10" d="M 41.296986 -0.176389 C 41.449948 -0.176389 41.653897 -0.176389 41.806859 -0.176389 "/>
<path fill="none" stroke-width="0.265808mm" stroke-linecap="butt" stroke-linejoin="miter" stroke="rgb(0%, 0%, 0%)" stroke-opacity="0.815106" stroke-miterlimit="10" d="M 41.806859 -0.176389 C 41.959821 -0.176389 42.163770 -0.176389 42.316732 -0.176389 "/>
<path fill="none" stroke-width="0.267978mm" stroke-linecap="butt" stroke-linejoin="miter" stroke="rgb(0%, 0%, 0%)" stroke-opacity="0.819717" stroke-miterlimit="10" d="M 42.316732 -0.176389 C 42.469694 -0.176389 42.673644 -0.176389 42.826606 -0.176389 "/>
<path fill="none" stroke-width="0.270147mm" stroke-linecap="butt" stroke-linejoin="miter" stroke="rgb(0%, 0%, 0%)" stroke-opacity="0.824328" stroke-miterlimit="10" d="M 42.826606 -0.176389 C 42.979567 -0.176389 43.183517 -0.177767 43.336479 -0.177767 "/>
<path fill="none" stroke-width="0.271551mm" stroke-linecap="butt" stroke-linejoin="miter" stroke="rgb(0%, 0%, 0%)" stroke-opacity="0.827313" stroke-miterlimit="10" d="M 43.336479 -0.177767 C 43.489441 -0.177767 43.693390 -0.179145 43.846352 -0.179145 "/>
<path fill="none" stroke-width="0.268364mm" stroke-linecap="butt" stroke-linejoin="miter" stroke="rgb(0%, 0%, 0%)" stroke-opacity="0.820539" stroke-miterlimit="10" d="M 43.846352 -0.179145 C 43.999314 -0.180523 44.203264 -0.181901 44.356226 -0.181901 "/>
<path fill="none" stroke-width="0.265178mm" stroke-linecap="butt" stroke-linejoin="miter" stroke="rgb(0%, 0%, 0%)" stroke-opacity="0.813765" stroke-miterlimit="10" d="M 44.356226 -0.181901 C 44.509188 -0.183279 44.713137 -0.184657 44.866099 -0.184657 "/>
<path fill="none" stroke-width="0.261991mm" stroke-linecap="butt" stroke-linejoin="miter" stroke="rgb(0%, 0%, 0%)" stroke-opacity="0.80699" stroke-miterlimit="10" d="M 44.866099 -0.184657 C 45.019061 -0.186035 45.223010 -0.187413 45.375972 -0.188791 "/>
<path fill="none" stroke-width="0.258805mm" stroke-linecap="butt" stroke-linejoin="miter" stroke="rgb(0%, 0%, 0%)" stroke-opacity="0.800216" stroke-miterlimit="10" d="M 45.375972 -0.188791 C 45.528934 -0.190169 45.732884 -0.191547 45.885846 -0.192925 "/>
<path fill="none" stroke-width="0.255619mm" stroke-linecap="butt" stroke-linejoin="miter" stroke="rgb(0%, 0%, 0%)" stroke-opacity="0.793441" stroke-miterlimit="10" d="M 45.885846 -0.192925 C 46.038808 -0.195681 46.242757 -0.197059 46.395719 -0.198437 "/>
<path fill="none" stroke-width="0.252432mm" stroke-linecap="butt" stroke-linejoin="miter" stroke="rgb(0%, 0%, 0%)" stroke-opacity="0.786667" stroke-miterlimit="10" d="M 46.395719 -0.198437 C 46.548681 -0.199815 46.752630 -0.202571 46.905593 -0.203949 "/>
<path fill="none" stroke-width="0.249246mm" stroke-linecap="butt" stroke-linejoin="miter" stroke="rgb(0%, 0%, 0%)" stroke-opacity="0.779893" stroke-miterlimit="10" d="M 46.905593 -0.203949 C 47.059933 -0.206706 47.263882 -0.209461 47.416844 -0.210839 "/>
<path fill="none" stroke-width="0.246059mm" stroke-linecap="butt" stroke-linejoin="miter" stroke="rgb(0%, 0%, 0%)" stroke-opacity="0.773118" stroke-miterlimit="10" d="M 47.416844 -0.210839 C 47.569806 -0.213596 47.773755 -0.216352 47.926717 -0.217730 "/>
<path fill="none" stroke-width="0.242873mm" stroke-linecap="butt" stroke-linejoin="miter" stroke="rgb(0%, 0%, 0%)" stroke-opacity="0.766344" stroke-miterlimit="10" d="M 47.926717 -0.217730 C 48.079679 -0.220486 48.283629 -0.223242 48.436590 -0.225998 "/>
<path fill="none" stroke-width="0.239686mm" stroke-linecap="butt" stroke-linejoin="miter" stroke="rgb(0%, 0%, 0%)" stroke-opacity="0.75957" stroke-miterlimit="10" d="M 48.436590 -0.225998 C 48.590930 -0.228754 48.794880 -0.231510 48.947842 -0.234266 "/>
<path fill="none" stroke-width="0.236500mm" stroke-linecap="butt" stroke-linejoin="miter" stroke="rgb(0%, 0%, 0%)" stroke-opacity="0.752795" stroke-miterlimit="10" d="M 48.947842 -0.234266 C 49.100804 -0.237022 49.304753 -0.241156 49.457715 -0.243912 "/>
<path fill="none" stroke-width="0.233313mm" stroke-linecap="butt" stroke-linejoin="miter" stroke="rgb(0%, 0%, 0%)" stroke-opacity="0.746021" stroke-miterlimit="10" d="M 49.457715 -0.243912 C 49.612055 -0.246669 49.816005 -0.250803 49.968967 -0.253559 "/>
<path fill="none" stroke-width="0.230127mm" stroke-linecap="butt" stroke-linejoin="miter" stroke="rgb(0%, 0%, 0%)" stroke-opacity="0.739246" stroke-miterlimit="10" d="M 49.968967 -0.253559 L 50.480218 -0.263205 "/>
</g></symbol></defs>
  <sodipodi:namedview id="namedview109" pagecolor="#ffffff" bordercolor="#000000" borderopacity="0.25" inkscape:showpageshadow="2" inkscape:pageopacity="0.0" inkscape:pagecheckerboard="0" inkscape:deskcolor="#d1d1d1" inkscape:document-units="mm" inkscape:zoom="1.7105319" inkscape:cx="44.430623" inkscape:cy="62.261334" inkscape:current-layer="svg109"/>
  <style type="text/css" id="style1">

tspan { white-space: pre; }

</style>
  <g transform="translate(0.0000, 5.0719)" id="g1">
    <line stroke-linejoin="round" stroke-linecap="round" stroke-width="0.1438" stroke="currentColor" x1="0.0719" y1="0" x2="53.4918" y2="0" id="line1"/>
  </g>
  <g transform="translate(0.0000, 4.0719)" id="g2">
    <line stroke-linejoin="round" stroke-linecap="round" stroke-width="0.1438" stroke="currentColor" x1="0.0719" y1="0" x2="53.4918" y2="0" id="line2"/>
  </g>
  <g transform="translate(0.0000, 3.0719)" id="g3">
    <line stroke-linejoin="round" stroke-linecap="round" stroke-width="0.1438" stroke="currentColor" x1="0.0719" y1="0" x2="53.4918" y2="0" id="line3"/>
  </g>
  <g transform="translate(0.0000, 2.0719)" id="g4">
    <line stroke-linejoin="round" stroke-linecap="round" stroke-width="0.1438" stroke="currentColor" x1="0.0719" y1="0" x2="53.4918" y2="0" id="line4"/>
  </g>
  <g transform="translate(0.0000, 1.0719)" id="g5">
    <line stroke-linejoin="round" stroke-linecap="round" stroke-width="0.1438" stroke="currentColor" x1="0.0719" y1="0" x2="53.4918" y2="0" id="line5"/>
  </g>
  <g color="rgb(51.0000%, 51.0000%, 51.0000%)" id="g7">
    <g transform="translate(0.0000, 3.0719)" id="g6">
      <rect x="0.0000" y="-2.0719" width="0.2301" height="4.1438" ry="0.0719" fill="currentColor" id="rect5"/>
    </g>
  </g>
  <g transform="translate(2.0000, 3.0719)" id="g8">
    <path transform="scale(0.0040, -0.0040)" d="M204 141c70 0 120 -41 120 -103c0 -91 -104 -179 -205 -179c-70 0 -119 41 -119 103c0 91 103 179 204 179z" fill="currentColor" id="path7"/>
  </g>
  <g transform="translate(1.1961, 8.2093)" id="g10">
    <g id="g9">
      <path transform="scale(0.0040, -0.0040)" d="M-56 138c0 22 66 163 165 163c20 0 33 -16 39 -38c24 23 54 38 83 38c21 0 36 -17 42 -39c23 24 52 39 81 39c33 0 59 -35 59 -70c0 -5 -1 -11 -2 -16l-35 -149c0 -2 -1 -4 -1 -5c0 -5 2 -8 7 -8c23 0 48 39 66 39c8 0 15 -5 15 -13c0 -18 -81 -89 -148 -89 c-20 0 -32 15 -32 34c0 4 1 8 2 12l39 165c1 5 2 9 2 14c0 10 -4 18 -14 18c-16 0 -33 -16 -39 -32l-51 -176c-4 -13 -18 -25 -31 -25h-27c-11 0 -19 8 -19 18c0 2 0 5 1 7l50 176c2 6 3 11 3 16c0 9 -4 16 -13 16c-16 0 -35 -15 -41 -33l-60 -175c-5 -14 -19 -25 -33 -25 h-27c-11 0 -18 7 -18 17c0 3 0 5 1 8l61 176c2 5 2 10 2 15c0 10 -3 17 -13 17c-29 0 -54 -53 -66 -87c-5 -15 -20 -23 -31 -23c-9 0 -17 5 -17 15z" fill="currentColor" id="path8"/>
      <path transform="translate(1.6503, 0.0000) scale(0.0040, -0.0040)" d="M251 227l-48 -156c-30 -99 -121 -255 -218 -255c-48 0 -87 37 -87 84c0 39 17 77 52 77c24 0 44 -20 44 -44c0 -30 -38 -24 -38 -54c0 -10 11 -11 23 -11h6c43 0 62 49 73 94l66 265h-40c-15 0 -26 12 -26 27s11 26 26 26h55c33 93 119 184 211 184c48 0 87 -37 87 -84 c0 -39 -17 -78 -52 -78c-24 0 -44 20 -44 44c0 30 38 25 38 55c0 10 -10 11 -22 11h-7c-54 0 -69 -73 -84 -132h45c15 0 27 -11 27 -26s-12 -27 -27 -27h-60z" fill="currentColor" id="path9"/>
    </g>
  </g>
  <g transform="translate(0.8500, 3.0719)" id="g11">
    <path transform="scale(0.0040, -0.0040)" d="M34 33l-1 -58v-10c0 -21 2 -43 5 -64c41 38 85 80 85 136c0 31 -13 63 -40 63c-31 0 -48 -33 -49 -67zM32 441l-8 -333c25 27 60 42 97 42c49 0 79 -52 79 -106c0 -76 -78 -117 -133 -169c-19 -18 -27 -52 -55 -52c-17 0 -30 17 -30 35l-14 583c10 6 21 9 32 9 s22 -3 32 -9z" fill="currentColor" id="path10"/>
  </g>
<use xlink:href="#inserted_svg_topaste_svg" x="0" y="0" width="56.48mm" height="25.00mm" preserveAspectRatio="xMinYMin meet" transform="scale(0.9483657932011331)"/></svg>