<svg xmlns="http://www.w3.org/2000/svg" xmlns:xlink="http://www.w3.org/1999/xlink" version="1.2" width="43.97mm" height="25.00mm" viewBox="0.0000 -0.0000 41.6996 23.7106">
<style type="text/css">
<![CDATA[
tspan { white-space: pre; }
]]>
</style>
<g transform="translate(0.0000, 6.7760)">
<line stroke-linejoin="round" stroke-linecap="round" stroke-width="0.1438" stroke="currentColor" x1="0.0719" y1="0" x2="41.6277" y2="0"/>
</g>
<g transform="translate(0.0000, 5.7760)">
<line stroke-linejoin="round" stroke-linecap="round" stroke-width="0.1438" stroke="currentColor" x1="0.0719" y1="0" x2="41.6277" y2="0"/>
</g>
<g transform="translate(0.0000, 4.7760)">
<line stroke-linejoin="round" stroke-linecap="round" stroke-width="0.1438" stroke="currentColor" x1="0.0719" y1="0" x2="41.6277" y2="0"/>
</g>
<g transform="translate(0.0000, 3.7760)">
<line stroke-linejoin="round" stroke-linecap="round" stroke-width="0.1438" stroke="currentColor" x1="0.0719" y1="0" x2="41.6277" y2="0"/>
</g>
<g transform="translate(0.0000, 2.7760)">
<line stroke-linejoin="round" stroke-linecap="round" stroke-width="0.1438" stroke="currentColor" x1="0.0719" y1="0" x2="41.6277" y2="0"/>
</g>
<g color="rgb(51.0000%, 51.0000%, 51.0000%)">
<g transform="translate(4.2679, 4.7760)">
<rect x="0.0000" y="-2.0719" width="0.2301" height="4.1438" ry="0.0719" fill="currentColor"/>
</g>
</g>
<g transform="translate(5.8000, 5.2760)">
<path transform="scale(0.0040, -0.0040)" d="M204 141c70 0 120 -41 120 -103c0 -91 -104 -179 -205 -179c-70 0 -119 41 -119 103c0 91 103 179 204 179z" fill="currentColor"/>
</g>
<g transform="translate(4.7116, 8.6520)">
<g>
<path transform="scale(0.0040, -0.0040)" d="M-56 138c0 22 66 163 165 163c20 0 33 -16 39 -38c24 23 54 38 83 38c21 0 36 -17 42 -39c23 24 52 39 81 39c33 0 59 -35 59 -70c0 -5 -1 -11 -2 -16l-35 -149c0 -2 -1 -4 -1 -5c0 -5 2 -8 7 -8c23 0 48 39 66 39c8 0 15 -5 15 -13c0 -18 -81 -89 -148 -89
c-20 0 -32 15 -32 34c0 4 1 8 2 12l39 165c1 5 2 9 2 14c0 10 -4 18 -14 18c-16 0 -33 -16 -39 -32l-51 -176c-4 -13 -18 -25 -31 -25h-27c-11 0 -19 8 -19 18c0 2 0 5 1 7l50 176c2 6 3 11 3 16c0 9 -4 16 -13 16c-16 0 -35 -15 -41 -33l-60 -175c-5 -14 -19 -25 -33 -25
h-27c-11 0 -18 7 -18 17c0 3 0 5 1 8l61 176c2 5 2 10 2 15c0 10 -3 17 -13 17c-29 0 -54 -53 -66 -87c-5 -15 -20 -23 -31 -23c-9 0 -17 5 -17 15z" fill="currentColor"/>

<path transform="translate(1.9917, 0.0000) scale(0.0040, -0.0040)" d="M160 28c76 0 98 179 98 182c0 18 -7 33 -25 33c-62 0 -103 -129 -103 -177c0 -22 8 -38 30 -38zM-52 139c0 7 54 153 137 153c34 0 55 -22 62 -52c29 31 67 52 103 52c69 0 107 -49 107 -114c0 -117 -104 -189 -160 -189c-67 0 -90 38 -99 12l-21 -59
c-2 -6 -2 -12 -2 -17c0 -50 52 -19 52 -52c0 -10 -7 -19 -19 -19c-4 0 -47 5 -110 5c-60 0 -109 -5 -110 -5c-12 0 -19 9 -19 19c0 39 87 -1 107 57l95 279c3 8 6 17 6 24c0 6 -2 10 -9 10c-53 0 -50 -121 -101 -121c-11 0 -19 6 -19 17z" fill="currentColor"/>
</g>
</g>
<g transform="translate(0.8000, 5.7760)">
<path transform="scale(0.0040, -0.0040)" d="M181 905c0 182 139 289 161 289c6 0 11 -2 16 -6c69 -77 137 -241 137 -356c0 -141 -80 -253 -170 -362c22 -67 41 -135 58 -203h7c158 0 259 -130 259 -265c0 -115 -75 -215 -179 -249c2 -31 4 -63 4 -94c0 -22 -1 -44 -2 -66c-8 -123 -94 -231 -214 -231
c-109 0 -197 88 -197 197c0 58 53 104 112 104c54 0 95 -48 95 -104c0 -52 -43 -95 -95 -95c-7 0 -13 1 -20 3c25 -34 64 -56 108 -56c92 0 155 89 161 189c1 20 2 41 2 61c0 27 -1 53 -3 80c-5 -1 -43 -8 -86 -8c-195 0 -333 183 -333 379c0 176 126 308 239 444
c-39 110 -60 172 -60 349zM466 -199c8 3 105 45 105 158c0 85 -61 169 -159 185c27 -130 46 -261 54 -343zM338 -217c1 0 46 1 80 6c-7 70 -26 211 -57 357c-78 -7 -123 -59 -123 -116c0 -42 25 -87 78 -118c6 -5 8 -12 8 -18c0 -13 -11 -25 -25 -25c-17 0 -130 63 -130 190
c0 91 60 180 165 203c-14 55 -30 109 -47 163c-103 -123 -206 -246 -206 -405c0 -142 140 -237 257 -237zM236 781c0 -41 16 -99 43 -179c76 97 138 199 138 322c0 54 -8 76 -19 106c-99 -44 -162 -141 -162 -249z" fill="currentColor"/>
</g>
<g transform="translate(4.6500, 5.2760)">
<path transform="scale(0.0040, -0.0040)" d="M34 33l-1 -58v-10c0 -21 2 -43 5 -64c41 38 85 80 85 136c0 31 -13 63 -40 63c-31 0 -48 -33 -49 -67zM32 441l-8 -333c25 27 60 42 97 42c49 0 79 -52 79 -106c0 -76 -78 -117 -133 -169c-19 -18 -27 -52 -55 -52c-17 0 -30 17 -30 35l-14 583c10 6 21 9 32 9
s22 -3 32 -9z" fill="currentColor"/>
</g>
</svg>
