<svg xmlns="http://www.w3.org/2000/svg" xmlns:xlink="http://www.w3.org/1999/xlink" version="1.2" width="59.91mm" height="25.00mm" viewBox="0.0000 -0.0000 56.8216 23.7106">
<style type="text/css">
<![CDATA[
tspan { white-space: pre; }
]]>
</style>
<g transform="translate(0.0000, 6.7760)">
<line stroke-linejoin="round" stroke-linecap="round" stroke-width="0.1438" stroke="currentColor" x1="0.0719" y1="0" x2="56.7497" y2="0"/>
</g>
<g transform="translate(0.0000, 5.7760)">
<line stroke-linejoin="round" stroke-linecap="round" stroke-width="0.1438" stroke="currentColor" x1="0.0719" y1="0" x2="56.7497" y2="0"/>
</g>
<g transform="translate(0.0000, 4.7760)">
<line stroke-linejoin="round" stroke-linecap="round" stroke-width="0.1438" stroke="currentColor" x1="0.0719" y1="0" x2="56.7497" y2="0"/>
</g>
<g transform="translate(0.0000, 3.7760)">
<line stroke-linejoin="round" stroke-linecap="round" stroke-width="0.1438" stroke="currentColor" x1="0.0719" y1="0" x2="56.7497" y2="0"/>
</g>
<g transform="translate(0.0000, 2.7760)">
<line stroke-linejoin="round" stroke-linecap="round" stroke-width="0.1438" stroke="currentColor" x1="0.0719" y1="0" x2="56.7497" y2="0"/>
</g>
<g color="rgb(51.0000%, 51.0000%, 51.0000%)">
<g transform="translate(4.2679, 4.7760)">
<rect x="0.0000" y="-2.0719" width="0.2301" height="4.1438" ry="0.0719" fill="currentColor"/>
</g>
</g>
<g transform="translate(5.8000, 6.2760)">
<path transform="scale(0.0040, -0.0040)" d="M204 141c70 0 120 -41 120 -103c0 -91 -104 -179 -205 -179c-70 0 -119 41 -119 103c0 91 103 179 204 179z" fill="currentColor"/>
</g>
<g transform="translate(4.9677, 9.1448)">
<g>
<path transform="scale(0.0040, -0.0040)" d="M160 28c76 0 98 179 98 182c0 18 -7 33 -25 33c-62 0 -103 -129 -103 -177c0 -22 8 -38 30 -38zM-52 139c0 7 54 153 137 153c34 0 55 -22 62 -52c29 31 67 52 103 52c69 0 107 -49 107 -114c0 -117 -104 -189 -160 -189c-67 0 -90 38 -99 12l-21 -59
c-2 -6 -2 -12 -2 -17c0 -50 52 -19 52 -52c0 -10 -7 -19 -19 -19c-4 0 -47 5 -110 5c-60 0 -109 -5 -110 -5c-12 0 -19 9 -19 19c0 39 87 -1 107 57l95 279c3 8 6 17 6 24c0 6 -2 10 -9 10c-53 0 -50 -121 -101 -121c-11 0 -19 6 -19 17z" fill="currentColor"/>

<path transform="translate(1.4795, 0.0000) scale(0.0040, -0.0040)" d="M160 28c76 0 98 179 98 182c0 18 -7 33 -25 33c-62 0 -103 -129 -103 -177c0 -22 8 -38 30 -38zM-52 139c0 7 54 153 137 153c34 0 55 -22 62 -52c29 31 67 52 103 52c69 0 107 -49 107 -114c0 -117 -104 -189 -160 -189c-67 0 -90 38 -99 12l-21 -59
c-2 -6 -2 -12 -2 -17c0 -50 52 -19 52 -52c0 -10 -7 -19 -19 -19c-4 0 -47 5 -110 5c-60 0 -109 -5 -110 -5c-12 0 -19 9 -19 19c0 39 87 -1 107 57l95 279c3 8 6 17 6 24c0 6 -2 10 -9 10c-53 0 -50 -121 -101 -121c-11 0 -19 6 -19 17z" fill="currentColor"/>
</g>
</g>
<g transform="translate(0.8000, 5.7760)">
<path transform="scale(0.0040, -0.0040)" d="M181 905c0 182 139 289 161 289c6 0 11 -2 16 -6c69 -77 137 -241 137 -356c0 -141 -80 -253 -170 -362c22 -67 41 -135 58 -203h7c158 0 259 -130 259 -265c0 -115 -75 -215 -179 -249c2 -31 4 -63 4 -94c0 -22 -1 -44 -2 -66c-8 -123 -94 -231 -214 -231
c-109 0 -197 88 -197 197c0 58 53 104 112 104c54 0 95 -48 95 -104c0 -52 -43 -95 -95 -95c-7 0 -13 1 -20 3c25 -34 64 -56 108 -56c92 0 155 89 161 189c1 20 2 41 2 61c0 27 -1 53 -3 80c-5 -1 -43 -8 -86 -8c-195 0 -333 183 -333 379c0 176 126 308 239 444
c-39 110 -60 172 -60 349zM466 -199c8 3 105 45 105 158c0 85 -61 169 -159 185c27 -130 46 -261 54 -343zM338 -217c1 0 46 1 80 6c-7 70 -26 211 -57 357c-78 -7 -123 -59 -123 -116c0 -42 25 -87 78 -118c6 -5 8 -12 8 -18c0 -13 -11 -25 -25 -25c-17 0 -130 63 -130 190
c0 91 60 180 165 203c-14 55 -30 109 -47 163c-103 -123 -206 -246 -206 -405c0 -142 140 -237 257 -237zM236 781c0 -41 16 -99 43 -179c76 97 138 199 138 322c0 54 -8 76 -19 106c-99 -44 -162 -141 -162 -249z" fill="currentColor"/>
</g>
<g transform="translate(4.3500, 6.2760)">
<path transform="scale(0.0040, -0.0040)" d="M0 112c0 13 8 25 20 30l34 13v148c0 13 10 24 23 24s24 -11 24 -24v-129l73 29v148c0 13 11 24 24 24s23 -11 23 -24v-129l10 4c4 2 8 2 12 2c17 0 32 -14 32 -32v-46c0 -13 -8 -24 -20 -29l-34 -14v-148l10 4c4 2 8 3 12 3c17 0 32 -14 32 -32v-46c0 -13 -8 -25 -20 -30
l-34 -13v-148c0 -13 -10 -24 -23 -24s-24 11 -24 24v129l-73 -29v-148c0 -13 -11 -24 -24 -24s-23 11 -23 24v129l-10 -4c-4 -2 -8 -2 -12 -2c-17 0 -32 14 -32 32v46c0 13 8 24 20 29l34 14v148l-10 -4c-4 -2 -8 -3 -12 -3c-17 0 -32 14 -32 32v46zM174 89l-73 -30v-148
l73 30v148z" fill="currentColor"/>
</g>
</svg>
