<svg xmlns="http://www.w3.org/2000/svg" xmlns:xlink="http://www.w3.org/1999/xlink" version="1.2" width="41.34mm" height="25.00mm" viewBox="0.0000 -0.0000 39.2117 23.7106">
<style type="text/css">
<![CDATA[
tspan { white-space: pre; }
]]>
</style>
<g transform="translate(0.0000, 5.0719)">
<line stroke-linejoin="round" stroke-linecap="round" stroke-width="0.1438" stroke="currentColor" x1="0.0719" y1="0" x2="39.1398" y2="0"/>
</g>
<g transform="translate(0.0000, 4.0719)">
<line stroke-linejoin="round" stroke-linecap="round" stroke-width="0.1438" stroke="currentColor" x1="0.0719" y1="0" x2="39.1398" y2="0"/>
</g>
<g transform="translate(0.0000, 3.0719)">
<line stroke-linejoin="round" stroke-linecap="round" stroke-width="0.1438" stroke="currentColor" x1="0.0719" y1="0" x2="39.1398" y2="0"/>
</g>
<g transform="translate(0.0000, 2.0719)">
<line stroke-linejoin="round" stroke-linecap="round" stroke-width="0.1438" stroke="currentColor" x1="0.0719" y1="0" x2="39.1398" y2="0"/>
</g>
<g transform="translate(0.0000, 1.0719)">
<line stroke-linejoin="round" stroke-linecap="round" stroke-width="0.1438" stroke="currentColor" x1="0.0719" y1="0" x2="39.1398" y2="0"/>
</g>
<g color="rgb(51.0000%, 51.0000%, 51.0000%)">
<g transform="translate(0.0000, 3.0719)">
<rect x="0.0000" y="-2.0719" width="0.2301" height="4.1438" ry="0.0719" fill="currentColor"/>
</g>
</g>
<g transform="translate(2.0000, 4.5719)">
<path transform="scale(0.0040, -0.0040)" d="M204 141c70 0 120 -41 120 -103c0 -91 -104 -179 -205 -179c-70 0 -119 41 -119 103c0 91 103 179 204 179z" fill="currentColor"/>
</g>
<g transform="translate(1.1961, 7.5999)">
<g>
<path transform="scale(0.0040, -0.0040)" d="M-56 138c0 22 66 163 165 163c20 0 33 -16 39 -38c24 23 54 38 83 38c21 0 36 -17 42 -39c23 24 52 39 81 39c33 0 59 -35 59 -70c0 -5 -1 -11 -2 -16l-35 -149c0 -2 -1 -4 -1 -5c0 -5 2 -8 7 -8c23 0 48 39 66 39c8 0 15 -5 15 -13c0 -18 -81 -89 -148 -89
c-20 0 -32 15 -32 34c0 4 1 8 2 12l39 165c1 5 2 9 2 14c0 10 -4 18 -14 18c-16 0 -33 -16 -39 -32l-51 -176c-4 -13 -18 -25 -31 -25h-27c-11 0 -19 8 -19 18c0 2 0 5 1 7l50 176c2 6 3 11 3 16c0 9 -4 16 -13 16c-16 0 -35 -15 -41 -33l-60 -175c-5 -14 -19 -25 -33 -25
h-27c-11 0 -18 7 -18 17c0 3 0 5 1 8l61 176c2 5 2 10 2 15c0 10 -3 17 -13 17c-29 0 -54 -53 -66 -87c-5 -15 -20 -23 -31 -23c-9 0 -17 5 -17 15z" fill="currentColor"/>

<path transform="translate(1.6503, 0.0000) scale(0.0040, -0.0040)" d="M251 227l-48 -156c-30 -99 -121 -255 -218 -255c-48 0 -87 37 -87 84c0 39 17 77 52 77c24 0 44 -20 44 -44c0 -30 -38 -24 -38 -54c0 -10 11 -11 23 -11h6c43 0 62 49 73 94l66 265h-40c-15 0 -26 12 -26 27s11 26 26 26h55c33 93 119 184 211 184c48 0 87 -37 87 -84
c0 -39 -17 -78 -52 -78c-24 0 -44 20 -44 44c0 30 38 25 38 55c0 10 -10 11 -22 11h-7c-54 0 -69 -73 -84 -132h45c15 0 27 -11 27 -26s-12 -27 -27 -27h-60z" fill="currentColor"/>
</g>
</g>
<g transform="translate(0.8500, 4.5719)">
<path transform="scale(0.0040, -0.0040)" d="M34 33l-1 -58v-10c0 -21 2 -43 5 -64c41 38 85 80 85 136c0 31 -13 63 -40 63c-31 0 -48 -33 -49 -67zM32 441l-8 -333c25 27 60 42 97 42c49 0 79 -52 79 -106c0 -76 -78 -117 -133 -169c-19 -18 -27 -52 -55 -52c-17 0 -30 17 -30 35l-14 583c10 6 21 9 32 9
s22 -3 32 -9z" fill="currentColor"/>
</g>
</svg>
