<svg xmlns="http://www.w3.org/2000/svg" xmlns:xlink="http://www.w3.org/1999/xlink" version="1.2" width="61.95mm" height="25.00mm" viewBox="0.0000 -0.0000 58.7535 23.7106">
<style type="text/css">
<![CDATA[
tspan { white-space: pre; }
]]>
</style>
<g transform="translate(0.0000, 5.0719)">
<line stroke-linejoin="round" stroke-linecap="round" stroke-width="0.1438" stroke="currentColor" x1="0.0719" y1="0" x2="58.6816" y2="0"/>
</g>
<g transform="translate(0.0000, 4.0719)">
<line stroke-linejoin="round" stroke-linecap="round" stroke-width="0.1438" stroke="currentColor" x1="0.0719" y1="0" x2="58.6816" y2="0"/>
</g>
<g transform="translate(0.0000, 3.0719)">
<line stroke-linejoin="round" stroke-linecap="round" stroke-width="0.1438" stroke="currentColor" x1="0.0719" y1="0" x2="58.6816" y2="0"/>
</g>
<g transform="translate(0.0000, 2.0719)">
<line stroke-linejoin="round" stroke-linecap="round" stroke-width="0.1438" stroke="currentColor" x1="0.0719" y1="0" x2="58.6816" y2="0"/>
</g>
<g transform="translate(0.0000, 1.0719)">
<line stroke-linejoin="round" stroke-linecap="round" stroke-width="0.1438" stroke="currentColor" x1="0.0719" y1="0" x2="58.6816" y2="0"/>
</g>
<g color="rgb(51.0000%, 51.0000%, 51.0000%)">
<g transform="translate(0.0000, 3.0719)">
<rect x="0.0000" y="-2.0719" width="0.2301" height="4.1438" ry="0.0719" fill="currentColor"/>
</g>
</g>
<g transform="translate(2.0000, 4.5719)">
<path transform="scale(0.0040, -0.0040)" d="M204 141c70 0 120 -41 120 -103c0 -91 -104 -179 -205 -179c-70 0 -119 41 -119 103c0 91 103 179 204 179z" fill="currentColor"/>
</g>
<g transform="translate(2.0212, 7.5999)">
<path transform="scale(0.0040, -0.0040)" d="M251 227l-48 -156c-30 -99 -121 -255 -218 -255c-48 0 -87 37 -87 84c0 39 17 77 52 77c24 0 44 -20 44 -44c0 -30 -38 -24 -38 -54c0 -10 11 -11 23 -11h6c43 0 62 49 73 94l66 265h-40c-15 0 -26 12 -26 27s11 26 26 26h55c33 93 119 184 211 184c48 0 87 -37 87 -84
c0 -39 -17 -78 -52 -78c-24 0 -44 20 -44 44c0 30 38 25 38 55c0 10 -10 11 -22 11h-7c-54 0 -69 -73 -84 -132h45c15 0 27 -11 27 -26s-12 -27 -27 -27h-60z" fill="currentColor"/>
</g>
<g transform="translate(0.9169, 4.5719)">
<path transform="scale(0.0040, -0.0040)" d="M124 33c-1 34 -18 67 -49 67c-27 0 -39 -32 -39 -63c0 -56 44 -98 85 -136c3 21 5 43 5 64c0 3 -1 7 -1 10zM176 -142c0 -18 -12 -35 -29 -35c-28 0 -36 34 -55 52c-55 52 -134 93 -134 169c0 54 30 106 79 106c37 0 72 -15 97 -42l-8 333c10 6 21 9 32 9s23 -3 33 -9z
" fill="currentColor"/>
</g>
</svg>
