<svg xmlns="http://www.w3.org/2000/svg" xmlns:xlink="http://www.w3.org/1999/xlink" version="1.2" width="40.47mm" height="25.00mm" viewBox="0.0000 -0.0000 38.3788 23.7106">
<style type="text/css">
<![CDATA[
tspan { white-space: pre; }
]]>
</style>
<g transform="translate(0.0000, 5.0719)">
<line stroke-linejoin="round" stroke-linecap="round" stroke-width="0.1438" stroke="currentColor" x1="0.0719" y1="0" x2="38.3069" y2="0"/>
</g>
<g transform="translate(0.0000, 4.0719)">
<line stroke-linejoin="round" stroke-linecap="round" stroke-width="0.1438" stroke="currentColor" x1="0.0719" y1="0" x2="38.3069" y2="0"/>
</g>
<g transform="translate(0.0000, 3.0719)">
<line stroke-linejoin="round" stroke-linecap="round" stroke-width="0.1438" stroke="currentColor" x1="0.0719" y1="0" x2="38.3069" y2="0"/>
</g>
<g transform="translate(0.0000, 2.0719)">
<line stroke-linejoin="round" stroke-linecap="round" stroke-width="0.1438" stroke="currentColor" x1="0.0719" y1="0" x2="38.3069" y2="0"/>
</g>
<g transform="translate(0.0000, 1.0719)">
<line stroke-linejoin="round" stroke-linecap="round" stroke-width="0.1438" stroke="currentColor" x1="0.0719" y1="0" x2="38.3069" y2="0"/>
</g>
<g color="rgb(51.0000%, 51.0000%, 51.0000%)">
<g transform="translate(0.0000, 3.0719)">
<rect x="0.0000" y="-2.0719" width="0.2301" height="4.1438" ry="0.0719" fill="currentColor"/>
</g>
</g>
<g transform="translate(2.0500, 2.5719)">
<path transform="scale(0.0040, -0.0040)" d="M204 141c70 0 120 -41 120 -103c0 -91 -104 -179 -205 -179c-70 0 -119 41 -119 103c0 91 103 179 204 179z" fill="currentColor"/>
</g>
<g transform="translate(0.9616, 7.8414)">
<g>
<path transform="scale(0.0040, -0.0040)" d="M-56 138c0 22 66 163 165 163c20 0 33 -16 39 -38c24 23 54 38 83 38c21 0 36 -17 42 -39c23 24 52 39 81 39c33 0 59 -35 59 -70c0 -5 -1 -11 -2 -16l-35 -149c0 -2 -1 -4 -1 -5c0 -5 2 -8 7 -8c23 0 48 39 66 39c8 0 15 -5 15 -13c0 -18 -81 -89 -148 -89
c-20 0 -32 15 -32 34c0 4 1 8 2 12l39 165c1 5 2 9 2 14c0 10 -4 18 -14 18c-16 0 -33 -16 -39 -32l-51 -176c-4 -13 -18 -25 -31 -25h-27c-11 0 -19 8 -19 18c0 2 0 5 1 7l50 176c2 6 3 11 3 16c0 9 -4 16 -13 16c-16 0 -35 -15 -41 -33l-60 -175c-5 -14 -19 -25 -33 -25
h-27c-11 0 -18 7 -18 17c0 3 0 5 1 8l61 176c2 5 2 10 2 15c0 10 -3 17 -13 17c-29 0 -54 -53 -66 -87c-5 -15 -20 -23 -31 -23c-9 0 -17 5 -17 15z" fill="currentColor"/>

<path transform="translate(1.9917, 0.0000) scale(0.0040, -0.0040)" d="M160 28c76 0 98 179 98 182c0 18 -7 33 -25 33c-62 0 -103 -129 -103 -177c0 -22 8 -38 30 -38zM-52 139c0 7 54 153 137 153c34 0 55 -22 62 -52c29 31 67 52 103 52c69 0 107 -49 107 -114c0 -117 -104 -189 -160 -189c-67 0 -90 38 -99 12l-21 -59
c-2 -6 -2 -12 -2 -17c0 -50 52 -19 52 -52c0 -10 -7 -19 -19 -19c-4 0 -47 5 -110 5c-60 0 -109 -5 -110 -5c-12 0 -19 9 -19 19c0 39 87 -1 107 57l95 279c3 8 6 17 6 24c0 6 -2 10 -9 10c-53 0 -50 -121 -101 -121c-11 0 -19 6 -19 17z" fill="currentColor"/>
</g>
</g>
<g transform="translate(0.6000, 2.5719)">
<path transform="scale(0.0040, -0.0040)" d="M0 112c0 13 8 25 20 30l34 13v148c0 13 10 24 23 24s24 -11 24 -24v-129l73 29v148c0 13 11 24 24 24s23 -11 23 -24v-129l10 4c4 2 8 2 12 2c17 0 32 -14 32 -32v-46c0 -13 -8 -24 -20 -29l-34 -14v-148l10 4c4 2 8 3 12 3c17 0 32 -14 32 -32v-46c0 -13 -8 -25 -20 -30
l-34 -13v-148c0 -13 -10 -24 -23 -24s-24 11 -24 24v129l-73 -29v-148c0 -13 -11 -24 -24 -24s-23 11 -23 24v129l-10 -4c-4 -2 -8 -2 -12 -2c-17 0 -32 14 -32 32v46c0 13 8 24 20 29l34 14v148l-10 -4c-4 -2 -8 -3 -12 -3c-17 0 -32 14 -32 32v46zM174 89l-73 -30v-148
l73 30v148z" fill="currentColor"/>
</g>
</svg>
